# xmcd
#
# Track frame offsets: 
#        150
#        17759
#        33049
#        49944
#        68661
#        86695
#        103211
#        116536
#        136890
#        152012
#        168829
#
# Disc length: 2422 seconds
#
# Revision: 0
# Processed by: cddbd v1.5.2PL0 Copyright (c) Steve Scherf et al.
# Submitted via: ExactAudioCopy v0.95b3
#
DISCID=8409740b
DTITLE=Dierks Bentley - Long Trip Alone
DYEAR=2006
DGENRE=Country
TTITLE0=Every Mile A Memory
TTITLE1=Can't Live It Down
TTITLE2=Long Trip Alone
TTITLE3=That Don't Make It Easy Loving Me
TTITLE4=Soon As You Can
TTITLE5=Trying To Stop You Leaving
TTITLE6=Hope For Me Yet
TTITLE7=The Heaven I'm Headed To
TTITLE8=Free And Easy Down The Road I Go
TTITLE9=Band Of Brothers
TTITLE10=Prodigal Son't Prayer
EXTD=
EXTT0=
EXTT1=
EXTT2=
EXTT3=
EXTT4=
EXTT5=
EXTT6=
EXTT7=
EXTT8=
EXTT9=
EXTT10=
PLAYORDER=
